<?xml version="1.0" encoding="utf-8"?>
<!-- Generator: Adobe Illustrator 24.0.1, SVG Export Plug-In . SVG Version: 6.00 Build 0)  -->
<svg version="1.1" id="Layer_1" xmlns="http://www.w3.org/2000/svg" xmlns:xlink="http://www.w3.org/1999/xlink" x="0px" y="0px"
	 viewBox="0 0 990 781.2" style="enable-background:new 0 0 990 781.2;" xml:space="preserve">
<g>
	<path d="M510.5,180.6c5.6,17.1,11.2-7.3,15.8-12.2c8.5,20.8,26.6-14.9,40.6-21.1c14.7,0.1,41-15.1,61.4-8.9
		c11.4-14.8-38.8-6.6-46.2-3.4c1.4-3.6,0.4-8.9-4.6-7.2c-12,4.9-20.1,14.6-33.7,15.1c-2.4-12.5,47.5-49.9,21.5-44.7
		c-6.3,1.7-12.5,4.6-18.4,6.9c0-8,13.2-16.4,8.3-23.6c-15.6,2.9-22.4,38.7-17.1,52.4c-2,5.3-6.1,7.6-9.8,11.1
		c-2.1,6.6-9.7,7.6-9.6-0.4C501.7,129.4,512.1,172.2,510.5,180.6z"/>
	<path d="M522.9,109.1c5.1-1.6,2.2-9.8,7.3-11.2c11.1-3.2,6.2-20.7,17.4-24.7c7.7-18.2-27-7.3-27.1,23.7
		C514.4,49.8,503.4,121.6,522.9,109.1z"/>
	<path d="M606.7,164.3c24.2-4.5,45.9,11.8,61.7,28.7c3.6,3.5,6.7-0.1,5.1-3.6c-6.2-21.9-31.2-31.2-52.1-32.1
		C617.5,156.1,598.9,160.9,606.7,164.3z"/>
	<path d="M837.6,659.2c-14.3-19.8-39.6-37.6-64-44.1c-3.4-0.8-6.8-1.4-10.3-1.9c-2.7-7.9-6.1-15.3-13.4-19.2
		c-12.2-6.4,29.7-15.6,25.6-31.7c0.1-4.1-3.3-5.1-6.5-5.4c-20.8,0-23.8-22-37.4-33c-4-5.7,17.4,1.9,18.4-7.4
		c-45.4-62.6-12.7-40.4-18.8-102.9c-0.7-2.2-0.4-4.5,1.8-2c19.9,14.4,13.2-19.3,10.1-29c21.1-4.2,27.8-15.4,8.7-27.7
		c-0.2-23.8-24.3-39.3-34.1-56.8c4.1,3.3,7.8,8.2,13.6,7.8c10.6,7.3,14.7,24.6,27.3,31.7c32.5,19.5-7-57.9,7.4-74.7
		c4.6-21.4,26.8-36.4,24.1-59.1c-0.8-4.5,5.2,2.6,7.6-0.8c3.5-6.9-4.7-18.2-5.4-26c2.5-13.2,7.5-25.2-1.5-37.8
		c-4.1-7.8-13.4-8.7-21.3-9.1c-9.7-2.4-14.9-13.7-26.4-13c-17.8,1.3,6.7-21.5-24.9-14.5c-13,3.6-12.9-13.5-26.7-18.4
		c-5.3-2.6-3.2-11.8-11.1-10.5c-20.6,1.6-31.1-24.2-52.8-24.2c-8.9,0.7-1.1-8.5-10.2-9.7c-9.1-2.4-17.7-7.4-27.4-6.3
		c-20.8,3-43.1-3.9-61.9,7.2c11.5-20.6-4.3-18-18.2-10.7c-27.6,16.9-11.3,23.9-28.8-3.1c-3.5-1.4-5.3-0.9-7,2.5
		c-2.9,11.3-19.8-7.2-28.4-8.1c-5.4-1.1-6.8,4.5-5.8,8.6c11.6,30.4-21.1-0.4-48.5,10.9c-16.3,4.4-34.5,12.6-41.8,26.8
		c-12.2-1.8-40.5,6.1-15.1,14.2c-21,5.9-34.8,27.3-58.6,15.2c-5-0.3-5.8,4.7-3.6,8.2c-13.3,6.2-28.4,3.3-42.2,5.1
		c-11.7-1.1-3.5,14.5,3,17.2c-7.6,3.8-11.2,9.9-15.7,16.2c-17.9,28.5-24.6,69.4-6.8,99.4c3.3,7.5-6.6,18.1-6.1,27.2
		c-3.4,18.9-4.6,38.4,0.4,57.1c-3.4,9.2-3.8,33.1,9.9,18c10.5-9.3,25.4-10.4,37.3-17.7c-11.1,18.2-39.4,43.6,0.4,45
		c3.9,5-3,17,1.5,24.2c7.4,19.1-26.7,30.5-18.4,44.5c4.9,4.3,10.9,6.8,17.4,7.4c-2,5.6-15.3,8.6-10.7,15.7
		c8.9,8.3,21.9,12.2,33.2,15.8c-11.3,19.9-35.6,29.2-47.7,46.7c5,19.7,29-5.9,5.6,27.3c-3.3,12.6-36.1,60.7-1.8,41.6
		c3.7-2.3,1.5,6.5,0.4,8.3c-1.6,3.1-3.4,6.1-5.4,9c-4.7,0.5-9.3,1.3-13.9,2.3c-24.3,6.4-49.6,24.3-64,44.1
		c-9.6,21.4-10.8,45.8,1.9,64.5c4.8,8.8,15.1,11.9,20.1,20.1c9.1,14.8,32.8,34.4,35.9,4.7c17.4,19.4,22.9,10.6,24.8-10.8
		c6.2-4.1,13.9-6.5,15.1-15c6.7,2.8,5.9,11.9,10.4,17c9.9,15.9,21.2,6.8,21.9-8.6c6.6-5.6,16.3-10.3,19.3-18.8h389.8
		c3,8.5,12.8,13.2,19.3,18.8c0.7,15.4,12,24.5,21.9,8.6c4.4-5,3.6-14.1,10.4-17c1.3,8.4,8.9,10.9,15.1,15
		c1.9,21.4,7.5,30.2,24.8,10.8c3.1,29.7,26.8,10.1,35.9-4.7c5-8.2,15.3-11.3,20.1-20.1C848.5,705,847.2,680.6,837.6,659.2z
		 M741.2,349.5c-10.6-6.4-17.7-17.1-27.1-25c-30.5-11.8,22.5,46.1,35.8,43c-12,9.5-14.4,3.2-24.7-4.4c-17.3-0.3,11.8,26.1,7.7,37.2
		c-5.3-2.1-10.9-10.6-16.3-6.9c-0.3,15.3,6.9,34.5,2.9,51.7c0,6.9-4.6-2.7-8.5-1.4c-10.9-0.8,6.8,25.2-5.2,16.5
		c-26.1-45.7-22.2-3.3-30.1,21.3c-3.3-10.9-1.4-21.8-0.8-32.8c-17.1-3.6-13.3,38.5-1.8,55.3c1.2,1.7-1,3.8-2.6,2.5
		c-6.4-4.6-12.1-12-19-10.3c-4.5-3.7-5-22.5-11-17.3c-2.5,10.3,3.7,20.9,7.4,30.3c-3.8,2.1-16.9-8.5-15.9-2.1
		c-2,17.6,16.7,29.9,14.4,46.9c-4.8,7.8-8.2,15.4-13,3.9c-17.9-9-9.8,25.5-17.7,33.7c-2.4-6.7-13.5-35.4-20.1-20
		c-1.7,27.2-10,54.9-33.6,71c-5.9-4.2,3.8-14.4-4.3-12.4c-11.9,13.1-33.3,45.9-48,41.8c11.5-19.8,5.3-60.6-11.1-19
		c-3.4-2.7-13.1-19-15.6-7.8c-1.1,4,2.8,11.1,1.4,13c-10.1-1.4-36.3-42.6-37.8-30.5c-5.5,34.9-25.2-43.2-2.5-44.9
		c4.2,1.9-1.5,12,5.3,12.3c15.6-18.7,12.9-11.5,33.3,1.2c4,12.5,5,31.6,15,7.9c7.9-4.1,22.4-18.4,29.2-5.7
		c1.7,13.6,10.4,3.5,10.6-4.7c4,7.6,0.5,16.9-1.2,24.7c8.7,8.6,17.1-22.4,20.9-30.2c8.4-14,21.3-26.2,23.8-43.3
		c0.2-2.3,0.3-9.1,2.3-3.6c9,20.7,15.2-14.2,4.4-20.4c-7.8-6-5.5-16.2-10-24c5.2-17.5,6-3.6,14.8-2.4c5.6-1.3,3.4-9.2,3.7-13.6
		c0.7-16.5,24.2-3.3,25.3-16.3c-0.8-5,1.5-8.5,3.1-13c8,0.8,8,17,16.2,11.8c7.7-20.4,12.9-44.3,10.8-66.8c1.1-6.3,17.9,4.1,20.4,7.2
		c4.6,3.3,10.2,25.6,8.9,6.6c1.1-13.5-38.4-38.6-27.5-43.4c10.4-3.2,15.8,11.3,24.3,8.5c2.9-12.3-10.2-22.7-20.7-26.8
		c-12-3.8-16.9-20.7-0.2-21.2c21.4,25.5,12.3-18.3,35.2,42.6c11.7-10.6-9.5-49.2-6.4-52c11.9,7.1,13.5-8.3,16.7-14.4
		C716.4,316.8,736.8,328.2,741.2,349.5z M389.5,439.1c-8.9,0.6,11.1-29,13.3-32.8c-14.4-2.9-17.1,16.4-27.6,19.2
		c-0.2-9.3,5.7-16.8,7.6-25.7c15.2-31.3-11.9-11.5-15.2,5.4c-1,2.7-1.1,2.8-4,2.6c-14,2.7-4.6-9.5-5.3-18.4
		c-0.1-10.7,25.5-32.1-1.6-22c3.4-19.1,19.9-32.1,34.4-41.7c-2-4.3-7.9,0.1-11.4-1.2c4.9-9.6,21.2-6,26.3-13.7
		c-5.1-3.4-21-9-5.3-9.2c7.4-2.6,26.7,7.5,22.9-5.5c3.3-0.2,8.1,0.6,3.8-4.3c2.4-1.4,9,0.8,10.3-3.5c-0.6-5.2-8.2-7-10.8-11.7
		c-2.2-10,40.4,12.5,20.6-9.7c-7.8-13.4,8.1-0.2,13.6,1.4c11.6-0.4-4.9-12-6.6-16.2c-4.9-23-1.3-23.9,9.4-3.2
		c23.5,28.5,10.3-10.1,21.1-23.2c1.3,13,8.3,25.3,12.1,38c12.2,7.7,3.5-20.4,10.8-25.1c18.6-19,14.8-7.7,8.7,9.5
		c-2.7,3.3-8.2,18.6,0.7,13.5c1.8-4.8,4.1-9.4,9.8-10.2c-0.6,5.1-2.6,10.6-1.5,16c7.4,7.4,18.3-12.9,27.9-11.8
		c-17.6,23.6,16.2,6.3,26.9,13.4c-3.1,6.8-15.3,8.2-15.3,15.2c7.7,8.2,55.7-20,30.4,3.3c-3.9,1.2-9.6,10.9-3.2,10.8
		c10.7-3.6,23.9-1.1,32.1,6.5c-6.1,2.2-20.1,0.6-21.1,8.3c7.3,2.1,16.6,4.5,22.2,11.9c18.4,21.4,9.5,16.5-9,6.4
		c-13.2,6.4,20.5,20.8,26.9,22.2c-5,7.2-15.6-0.8-23.8,0.2c-11.9,3.7,26.8,14.3,24.9,27.6c-4.5,15.6-20.6-10.9-29.3-12.6
		c-16.3,2.4,14.3,13.9,13,22.1c10.1,11.9,19.8,23.3,13.3,40.5c-1.8,12-5.7-2.7-12.3-4.6c-9.4-5.8-11.2-18.9-23-21.7
		c4.7,6.3,21.4,43.9,4.9,40c-9.7-10.7-17.9-23.7-31.1-30.1c2.5,7.2,6.3,14.2,11.5,19.9c16.3,21.5-22.5-5.2-24.6,7.9
		c1.1,24.6-47.8-12.3-53.3-4.8c-9.4,5.6-9.8-34.6,2.4-17c4.1,1.9,4.6-3,3.2-5.8c5.9-9.8,10.9,11.6,16.5,11.4
		c6.9-6.5-12.6-21.5-4.1-24.3c4.9-2.6,6.1-2.4,9.6,1.8c1.8,2.1,7.6,10.2,8.1,3.4c2.5-6-14-19.6-6-18.5c1.9,3.1,9.3,3.5,7.3-1.5
		c-5.1-10,9.1-18.2,16.2-22.5c3.9-3.1,7.9,3.7,11.4,2.7c1.9-2.8-2.1-6.4-4-8.4c-4.4-4.1-7.3-9.8-9.9-14.9c-5.3-5.3-8.7-10.2,1.1-5.5
		c2.7,2.3,4.5-0.9,2.3-3.1c-3-8.9-20.7-11.2-21.1-16.7c3.1-1.4,5-7.7,0-6.9c-29.4-3.7-10.9-2-18.8-15c-4.1-2.3-7.5,3.2-10,6
		c-9.9,3.2-22.7-2.6-33.5,2.1c-14.1,6.5-25-7.7-31.3-1.6c2,11.5,3.7,1.8-5.3,13.3c-2.7,7-12.6,0.7-15.4,6
		c9,11.7-19.5,14.5-25.5,25.7c0.3,8.9,20.2-11.2,27.7-8.2c-1.1,5.2-24.3,26.9-14.9,25.9c2.7-3.4,12.5-7.2,14.9-4.4
		c-1.4,8.1,8.7,16.4,4.9,22.8c-6.1,6.2,3.2,6.5,7.5,8.8c-2.8,2.5-10.6,11.8-2.3,10.7c2.6-0.4,11.7-6.8,10.8-2.2
		c0.2,4.5-17.1,20.3-5.7,16.8c20.6-21.2,17.5-6.6,7.9,11.1c5.8,7.5,15-15.6,21.9-13.6c2.5,2.6,7.6,1.3,8.3,5.6
		c1.8,6.7,3.9,11.9-2.1,17.3c-9-12.2-20.8,7.5-31.6,6.6c-4-2.5-2.1-10.6-8.6-7.7c-5.4,1.3-11.1,0.3-15.9,3.5
		c-32.9,10.8-6.1-24.6,1.6-37.6C426,393.3,402.2,436.8,389.5,439.1z M352.1,279.1c-10.4-0.3-18.9,12.6-22.7-2.2
		c-3.9-11.7,6.7-19.8,15.4-25c11.3,1.8,22.7,12.1,34.9,14.7c8.4,0-13.5-11-10.3-18.5c47.6,37.1,48.1-9.8,63.9-3.5
		c-5.3,15.5-23.2,20.9-36,28.2c-5.5,2,1.1,6.3-2,8.8c-4.1,9.2-18.1,2-27,6.8C385,280.4,360.1,277.4,352.1,279.1z M382,244.5
		c-12.6-4.6-8.8-11-0.7-18.7C379,232.1,379.7,238.3,382,244.5z M395.4,224.6c0.8-9.7,10.6-5.7,9.7,2
		C404.1,233.4,395,231.3,395.4,224.6z M414.8,246.9c4-5.2,2.7-18.8,5.2-20C428.7,238.9,425.6,239.2,414.8,246.9z M588.5,246
		c-10-0.8-10.8-12.7-15-19.7c-1.1-3.6,5.3-4.8,8.1-7.2C578.4,228.9,580,239.9,588.5,246z M586.6,222.3c18.1-19,10.6,17.2,2.6,3.2
		C589.3,222.8,589.3,222.8,586.6,222.3z M592.8,257.7c19,6,30.2-10.8,41.3-5.4c6.1,0.4,11.9,3.3,13.9,9.1
		c18.4,7.7,6.8-14.1,1.8-20.9c4.3-7.9,13.7-3,19.7-2.1c12.1,2,19,21.7,23.1,32.5c-6.1-5.9-23.6-13.2-19.6,2.1
		c-14.5-0.2-33.9-5.8-44.4,6.1c9,7.2,18.4,14.9,24.9,25.8c-12.1-0.9-20.9-13.6-33.3-16c-13-2.3-4.9-10.8-3.8-19.1
		c-1.5-11-14.6,1.7-21.3-0.8c-5.4-7.6-18.9-6.5-27.1-13.4c-5.7-3.3-8.5-15.2-3.3-19.6C571,247.2,579.2,255.5,592.8,257.7z M614,242
		c2.8-5.6,3.8-9.4,4.2-15.5C627.3,233.5,622.8,238.2,614,242z M571.9,455c-1.9,10-4.3,19.8-10.6,27.5
		C556.5,457.3,548.3,463.9,571.9,455z M490.8,409c-7.7-5.3-50.4-25-40-33c6.2-3.1,13.7,3.4,20.4,1.9c11.6-3,14.3-17,4.8-24.8
		c-10.9-6.9-12.8,10.6-9.2,17c-5.4-4-18.5,0.8-20.3-3.7c-2.8-8.8-0.6-21.1,9.7-23.1c5.8-4.8,15.2-3.8,21.7-7
		c-6.3-9.6-24.8,4.7-31.1-0.8c11.7-24.7,44-21.4,66.9-22.3c12,2.9,48,25.3,17.4,23.4c-13.4,6.7,9.1,7.1,11.5,12.4
		c9.9,14.5-8.6,27.9-21.7,18.9c-3.3-3.3,1.8-9.5-2.4-13.6c-17.3-14.6-25.6,39.1,22.9,17.3c-9.8,14.8-20.6,28.7-37,37.5
		c-3-8.9-2.4-31.3-9.2-34.6C488.8,383.9,496.5,399,490.8,409z M419.9,451.1c11.9-3.1,11.3,4,12.7,13.6c-0.1,6.4-7.6,9.3-8.7,16.6
		C415.5,472.7,417.1,460.1,419.9,451.1z M439.3,476.7c5.9-25.5,20.5-19.1,38.8-31.7c3.5,6,6.2,6.2,11.8,1.7
		c7.4,31.1-5.9,64.2,6.5,95.1c9.5-30.7,3.8-64.7,6.8-97.1c4.2,1.3,8.4,4.3,12.5,0.1c7.6,2.4,15.5,10.2,24.7,11.5
		c3.5,1.8,1.9,8.5,3.8,12c2,18.2,14.1,33.7,15.5,51.5c-0.2,36.2-32.6,66.9-68,65.4C450.3,572.7,417.9,517.2,439.3,476.7z
		 M728.1,111.9c-2.8,4.5-3,9.1,2.8,10.8c7.7,2.7,16.7,1.6,22.9,7.7c5.8,6.4,13.2,8.7,21.6,9.4c19.8,8.5,3.7,37,13.1,52.7
		c-20.8-14.7,2,22.6-12.1,29.8c-5.1-49.9-29.7,79.4-19.6,88.8c5.4,28.6-11.3-26-24.6-18c-6.2,3.7-12.9-34.6-9.7-40.9
		c2.8,3.3,0,10.1,4.4,11.8c8.6-1.1,0.9-35,7.8-26.3c16.1,35.6,9.3-27.3,7.8-35.9c-0.5-14.9-24.3-33.1-18.7-44.4
		c13.1,10.7,27.3,20.4,26.7,39.6c12.6,11.3,7.6-24.1,7.3-30.8c18.5,14.3,12.6-17.5-1.3-19.7c-11.1-13.2-12.9-10.5-28.1-17.7
		c-5.8-12.7-22.2-12.2-32.7-18.7C704.7,114.2,727.9,104.1,728.1,111.9z M692,99.8c-9.3,0.4-17.8-0.8-25.8-6
		C678,83.8,679.7,94.5,692,99.8z M318.6,199.5c-10.3,3,11.6-16.4,14.2-22.6c8.1-10.3,16.9-22.8,30.1-26.3c4.5-0.4,0.1-5.3,1.7-8
		c-0.3-3.2-6.6-1.5-8.6-4.3c2.6-11.1,29.6-13.9,42.1-14.5c8.9-2.3,48.3,10.8,33.3-7.4c18.7,1.9,35.3,47.9,43.3,69.7
		c9.4,8,9.1-29.9,9.9-36c-5-8.1-1.8-14.7,2-22.6c1-2.6-1.9-5.2-4.1-3.2c-3.7-4.8,2.5-17.4-1.6-24.3c-2.3-6.7-8.1-1.6-12.1-4
		c-17.3-11.3-24.1-4.1-8.8,9.7c-1.2,7.5,10.3,12.5,10.5,21.1c0.6,10.7-3.6,18.8-11,6.4c-11.6-14.3-23.9-31.3-40.3-40.2
		c-4.4-1.4-7.5,1.4-6.7,6c-1.4,2-11.9-10-12.6,0.9c-21.5-9.1-71.1,25.4-19.5,11.7c6.3-0.8,11,0.1,15.9,3.2
		c-10.1,1.5-20.6,1.9-30.4,5.9c-6.7,6.7-43.1,10.4-23.9,21.3c8.8,4.3-17.5,12.8-23.8,15.8c2.8-14.4-0.5-29.1,5.9-42.1
		c17.6-19.4,0-8-7-14.4c15.8-13.9,38.8-15.5,58.9-13.7c6-10.2-20.7-10.5-27.9-10.6c11-15.2,59,0.4,47.4-12.5
		c-33.2-8.8,7.5-14.9,22.8-13.3c16.8,3.6,36.6,12.4,46.6,26.6c0.8,4.7,5.5,6.1,4.5,0.1c1.4-7.5-33.3-47-9.1-34.1
		c22.4,5.9,16.6,23.5,28.9,31.2c8.8-10.8,9.9-31.5,27.2-36.7c8.6,5.1-14.9,19.5-4.5,26c3.1,1.7,6.4-1.4,8-4.3
		c15.7-18.2,45.8-14.8,67.8-14c5.5,0.9,10.8,2.5,16.1,5.4c-4,4.4-17.6,4.7-13.7,12.8c22.6-4.2,47.2,2.2,67,17.1
		c4.7,1.5,9.6,7.4,1.7,4.6c-4.1-2.6-8.5-5.8-13.6-4.2c-14.1,1.1-27.5,3.8-41.4,7c-7,1.1,8.3-7.7,5.5-11c-20.8-10.7-36.3,56.2-6.4,23
		c4.8-3.9,10.5-1.7,16-3.4c11.4-9.4,15,8.4,26.6,6.8c-18,13.3-1.3,9.5,9.9,11.7c13.1,5.2,26.2,3.4,38.4,10.3
		c-16.7,4.3-9.2,9.6,3.6,9.5c-25.8,11.4,18.4,29.5,15.2,59.1c-4,1.1-17.2-33.1-23.6-20.1c8.2,14.2,13.9,30.6,26,42.1
		c-4.4,3.3-11.8-4.1-14.8,2.8c21.9,45.2-24-10-34.5-21.5c-1.8-3-9.6-5-6.9,0.7c8.7,15,15.2,19.9-6.3,14.9
		c-8.6-5.5-10.8-20.7-23.4-21.3c-4.3-0.3-6.5,3.6-4.3,7.2c24.7,35.4-17.4-1.6-34.8,10.8c-19.3,0.2,29.3-21.8,28.6-24.1
		c-2-2.3-5.6,1-8.2-0.1c-6.9-4-17.5,2.8-21.7,0.8c1.9-3.1-1.2-7.6-4.5-8.1c-4.3-1.3-4.1-8-9.9-7.4c-7.9-3.2,5.8-14.2,11.2-14
		c8-13.1-24.7,1.5-26.9,8.7c-5.6,8.1-8.1,17.3-11.8,26.2c-1.2-2.9,1.3-7.6-2.2-9c-10.9,1.8-2.1,25-10.4,25.5
		c-3.8-3.3-7.5-2-11.3-0.1c-8,2.2-5-13.9-16,4.4c-1.4,1.7-3.3,2.3-5.2,1.7c-12.8-0.9-5.3,10.2-14.9-4.6
		c-10.5-5.6-8.5,15.1-13.9,20.4c-7.7,8.5-11.9-9-11.3-15.2c0.1-2.4-0.9-3.7-3.4-3.6c-8.1-8.3,7.6-21,5.9-31.8c3-7.7-20-35.7-23.5-27
		c2.2,3.8,11.4,16.6,6.4,17.5c-8.5-13.8-26-10.5-39.7-11.3c-34.4,3.3,12.1,10.5,18,22.5c-5.6,1.6-42.4,1.5-26.8,13.4
		c7-0.3,13.8,0.5,19.3,5.3c-3.6,17.6,16.1,6,20.9,27.5c-8.1,19-19-47.6-71.9-3.3c-11.8,2.5-10.5-10.9-7.9-18.2
		c1.9-4.7,20.8-15.2,6.4-15.7c-10.2,2.6-55.4,51.5-24.8,40.9c15.1,9.6-31.2,24.8-37.5,36.9c-5.5-21.3,47.8-54.9-7.1-31
		C309.3,229.2,365.2,169.9,318.6,199.5z M316.5,287.1c2.8,6.7-7.1,11.1-8.2,17.6c0.4,15.6,19.2-12.6,29.8-7.9
		c-6.4,7.3-14.8,14.1-18.1,23.8c1.1,10.1,24.7-23,39.1-14.8c3.8,1.4,18.7,4.5,15,9.3c-6,3.5-9.2,14.5-17.4,13.9
		c-18,4.5-32.9,22.2-40.7,39.1c-6.9-7-8.3-53.7-17.9-26.1C285.8,323.4,292.1,291.7,316.5,287.1z M238.1,309.9
		c-11.3,10.5,17.9,4.2-18.7,16.4c5.3-5.9,8.2-28.6-4.1-18c-5.7-30.3,11.4-59.2,14.7-88.9c-0.6-4.3,1.2-11.5-2.4-14.2
		c-5.1,5.6-2.6,17.1-7.5,24c-6.8-30-11.6-58.9,7.7-84.6c4.3-7.6,24.7-10.3,13.3-20.9c1.2-2.5,3.2-2.7,5.4-2.7
		c14,0.9,26.2-5.9,39.9-6.4c-14.5,1.2-50.9,28.7-14.8,16c-6.5,6-24.2,22.3-2.8,16.1c-7.9,7.5-20.7,16.3-19,28.3
		c10.4-6.4,19.9-16.5,33-18c28.8-1.8-25.8,22.8-9.9,28.2c7,1.6,13.3-2.7,18.3-7.1c-5.7,12-17.7,21.5-26.5,31.8
		c-28.3,31.3,1.9,7.7,13.6,8.1c-10.9,8.2-21.4,16.9-28.5,29c-3.5,6.8-8.6,27.6-2.5,29.2c4.3-7.7,8.9-16.7,18-19.4
		C278.8,254.1,246.6,310.8,238.1,309.9z M246.8,357.7c11.2-10.6,22.5-19.8,30.9-32.4c4.7,21.2,7.7,37.7-12,51.4
		c-3-3.9,8.2-14.9,2.9-20.1C260.7,355.9,259.4,362.8,246.8,357.7z M264.6,460.5c-0.6-6.1,18.1-12.4,18-22.4
		c-2.5-9-16.2-0.6-23.3-4.5c-12.8,1.1,10.3-17.1,9.2-26.9c6.6-13.1,19.9-25.3,35.5-23.8c-0.6,2.6-4.3,6.4-1.4,8.7
		c3.4,2.7,7.2-2.8,9.6-5.2c1.2,4-0.5,9.1,3.2,12.3c7.2,2.5,5.8-12.7,13.1-15c9.9-6.2,18.2-5.4,14.2,8.1
		c-8.1,17.5-33.9,15.1-42.7,33.5c-6,21.1,22.8-16,42.2-6.6c12.9,5.1-7.8,15.8-8.4,24.1c-3.5,6.3-11.1,17.4-6.6,23.8
		c7-10.4,13.7-25.2,29.1-26.2c3.4,1.5,8.1,0.4,10.7,3.4c4.3,3.1,7.5-6.2,12.8-4.4c2.9,3.8,2.4,10.3-2.3,13.1
		c-6.5,10.3-6.5,23.1-11.5,33.8c6.2-6.3,17.3-19.1,25.1-7.7c1.6,3.5,13.9,3.1,10.6,7.9c-6.9,0.7-16.4,12.1-13.1,18.4
		c6.9-0.9,14.5-5.5,22.2-6.3c7.1-0.6-1.8,3.3-3.5,6c-3.2,5.9-7.4,11.6-10.5,17.8c-2.4,5.5,3.8,4.6,5.9,1.7
		c4.4-4.4,10.2-1.3,15.2-4.3c-0.3,6.1,1,11.9,1.3,17.3c-6.5,7.2-6.8,28.8,2.8,31.5c1.9-5.9-1.2-18.5,5.9-21.5
		c15.5,4.3-2.4,28.2-8,36.4c-6.2,9.4-2.3,22.1-1.4,32.6c2.5,15-20.3-18.7-22.7-25.6c-6.3-14.4-12.7-1.2-16.6,6.5
		c-1.5-13.4-1.1-26.2-8.5-38.4c-2-14.7-3.1-14.7-12.8-26c-0.6-29.4-14.1,13.9-9,24.1c-10.1-5.5-12.2-55.4-23.4-25.1
		c-15,5.5,15.4-81.7-10.7-37.5c-6.7,4.6-11.3,27.8-9.8,8.7c4.4-16.1-5.1-7.7-13.3-4.3c-1.3-16.2,18.3-23.7,18.2-39.9
		c-2.2-8.4,8.1-9.9,10.1-15.4c-13.8-2.8-19.6,14-28.7,21.4C283.1,469.4,272.4,464.9,264.6,460.5z M345.6,686.5
		c-9.9,1.3-10.5-17-18.7-22.5c-6.8-6.7-17.4-9.4-25.4-3.2c0,0,0-0.1,0-0.1c-1.2,1.2-2.6,2.2-3.6,3.7c7.4-0.1,13.4,4.8,19,9
		c-10-3.9-23.8,3.6-21.7,14.9c0,0,0-0.1,0-0.1c0,0.1,0,0.1,0,0.2c0,0,0,0,0-0.1c-6.8,25-8.9,29.8-36.4,27
		c-20.7-23.7-11.4-63.2,11.7-80.5c-24.3,5-37,29.5-38,52.5c-1.5,9.9,6.2,18.7,5,28.1c-4.9,12.1-19.6,11.2-30.5,12.3
		c-16.3-30.4-13.8-58.1,9.2-83.7c-12.3,6.3-27.4,15-30.5,29.6c-2.1,13.9-6,14.8-4.2,28.7c3.7,9.5,4.4,20.4,8.1,29.5
		c-3.7,1-16.8,3.9-15.6-3.6c0,0-3-16.8-3-16.8c-4.2-20.4-2.1-43,10.6-59.9c-18.4,16.2-29.2,43.3-21.7,67.3
		c-17.7-14.1-8.9-47.1,3.7-62.7c8.1-11.2,21.5-15.4,32-23.3c24-10.6,52.8-13.1,78-5.7C302.8,638.7,335.4,654.7,345.6,686.5
		C345.7,686.5,345.6,686.5,345.6,686.5z M362.9,688.4c-12.4-11-19.1-27.3-31.1-39c-0.5-0.5-0.9-1-1.4-1.5c6.9-14,12.2-26.3-1.4-24.9
		c-7.2,0.4-24.7,3-12.5,11.9c-0.1,0.2-0.1,0.4-0.2,0.5c-0.1-0.1-0.3-0.2-0.4-0.3c-20.9-14.8-47-22.7-72.9-23.1
		c1.9-12.2,4.3-24.2,11.9-34.2c4.5-17-22.3,9.6-19.1,2.4c2.7-27.4,50.1-58.2,12.3-55.2c7.1-6.4,26.2-17,32.5-30.5
		c1,6.8-1.8,14.7,0.8,21.6c0.7,6.7-5.1,18.1,0.8,22.4c3.8-3.2,3.7-19.5,10.3-17.4c17.9,12.6-5.3,28.3,0.3,43.4c6,1.3,6.6-8,11.5-9.9
		c2.5,15.9-13.9,27.8-14.5,43.7c-0.5,7.4,0.9,15.6,2.8,22.3c7.9-8.1,10.6-25.9,25.7-30.2c11.3-3.1,9.1-21.7,14.3-19
		c17.8,6.4-7.9,23.2-0.9,33.4c8.4,6.3,15.1-15.1,18-11.5c-0.5,15.3,53.8,102.3,67.7,83.8c2.1-8.7-10.7-13.6-13.1-21.8
		c-7.6-12-8.9-25.6-6.9-39.4c14.3,7.1,17.6,23.3,19.5,37.8c1.9,4.5,7,5.1,10,1.3c11.8-7.7,15.9,19,14.9,33.4H362.9z M623.7,688.4
		h-65.3c5.3-11.9,14.1-22.4,23.3-31.4c2.7-1.9,4.4,4.8,6.1,6.5c8.8,10.3,10.7-6.6,13.1-12.4c4.6-15.1,16.3-25.6,23.2-39.3
		c3.2,7.5,4.2,17,10.7,23.1c5.6,4.9,13.5-0.4,9.6-7.4c-21.6-26.2,21.8-90.2,12.9-28.2c-3,4.3,0.8,12.4,5.5,6.7
		c7.7-10.9,8.4-24,8.4-36.9c23.3,9.1,46.3,17.7,12-7.4c-14.9-28.4-26.3-53.5,9.6-18.1c6.4-13.6-5.8-33.7-0.8-48.8
		c25.8,24.3-12.6-36.2,42.5,17.3c-49.9-3,0.6,19.6,6.3,40.2c0.9,9.1-14.3-10.5-18.9-13.5c-11.6,2,15.1,23.9,22.9,23
		c31.8,5.5,4.9,14.8-9.7,17.4c-6,1.2-17-11.8-19-3.5c4.7,15.5,20.3,21.3,30.3,32.3c0.4,1.4,0.7,2.8,1.1,4.2
		c-27.1-0.3-54.6,7.6-76.5,23.1c-5.7,4.2-11.1,9.1-16,14.3C642.8,661.1,636,677.4,623.7,688.4z M826.4,719
		c7.5-24-3.3-51.1-21.7-67.3c12.7,16.9,14.8,39.6,10.6,59.9c0,0-3,16.8-3,16.8c1.2,7.5-11.8,4.6-15.6,3.6c3.7-9.1,4.4-20.1,8.1-29.5
		c1.8-14-2-14.8-4.2-28.7c-3.1-14.6-18.2-23.4-30.5-29.6c23,25.6,25.6,53.3,9.2,83.7c-10.9-1.1-25.6-0.2-30.5-12.3
		c-1.2-9.4,6.5-18.3,5-28.1c-1-23-13.6-47.5-38-52.5c23.1,17.3,32.4,56.8,11.7,80.5c-27.5,2.8-29.6-2-36.4-27c0,0,0,0,0,0.1
		c0-0.1,0-0.1,0-0.2c0,0,0,0.1,0,0.1c2.2-11.3-11.7-18.8-21.7-14.9c5.6-4.2,11.7-9.1,19-9c-1-1.4-2.4-2.5-3.6-3.7c0,0,0,0.1,0,0.1
		c-8-6.2-18.6-3.5-25.4,3.2c-8.2,5.5-8.8,23.9-18.7,22.5c0,0,0,0,0,0c10.2-31.8,42.9-47.8,71.7-59.2c25.2-7.4,54-4.9,78,5.7
		c10.6,7.9,24,12.1,32,23.3C835.3,672,844.1,705,826.4,719z"/>
</g>
</svg>
